<?xml version="1.0" standalone="no"?><!DOCTYPE svg PUBLIC "-//W3C//DTD SVG 1.1//EN" "http://www.w3.org/Graphics/SVG/1.1/DTD/svg11.dtd"><svg t="1709272671766" class="icon" viewBox="0 0 1024 1024" version="1.1" xmlns="http://www.w3.org/2000/svg" p-id="6371" xmlns:xlink="http://www.w3.org/1999/xlink" width="64" height="64"><path d="M781.9 304.5c-10.8 0-19.8 8.3-20.7 19l-41.7 479c0 45.8-37.2 83-83 83h-249c-45.8 0-83-37.2-83-83l-41.7-479.1c-0.9-10.7-9.8-18.9-20.5-18.9-12.1 0-21.7 10.4-20.7 22.5L263 802.5c0 68.8 55.7 124.5 124.5 124.5h249c68.8 0 124.5-55.7 124.5-124.5l41.4-475.7c1-12-8.5-22.3-20.5-22.3z" p-id="6372"></path><path d="M408.3 802.5c11.4 0 20.8-9.3 20.8-20.8V387.5c0-11.4-9.3-20.7-20.8-20.7s-20.8 9.3-20.8 20.7v394.3c0 11.4 9.3 20.7 20.8 20.7zM532.8 781.8V387.5c0-11.4-9.3-20.7-20.8-20.7s-20.8 9.3-20.8 20.7v394.3c0 11.4 9.3 20.8 20.8 20.8s20.8-9.4 20.8-20.8zM636.5 781.8V387.5c0-11.4-9.3-20.7-20.8-20.7s-20.8 9.3-20.8 20.7v394.3c0 11.4 9.3 20.8 20.8 20.8s20.8-9.4 20.8-20.8zM906.3 221.5H678V180c0-45.8-37.2-83-83-83H429c-45.8 0-83 37.2-83 83v41.5H117.8c-11.4 0-20.8 9.3-20.8 20.7 0 11.4 9.3 20.8 20.8 20.8h788.5c11.4 0 20.8-9.3 20.8-20.8-0.1-11.4-9.4-20.7-20.8-20.7z m-518.8 0V180c0-22.9 18.6-41.5 41.5-41.5h166c22.9 0 41.5 18.6 41.5 41.5v41.5h-249z" p-id="6373"></path></svg>